<?xml version="1.0" encoding="utf-8"?>
<!-- Generator: Adobe Illustrator 16.0.0, SVG Export Plug-In . SVG Version: 6.00 Build 0)  -->
<!DOCTYPE svg PUBLIC "-//W3C//DTD SVG 1.1//EN" "http://www.w3.org/Graphics/SVG/1.1/DTD/svg11.dtd">
<svg version="1.1" id="Layer_1" xmlns="http://www.w3.org/2000/svg" xmlns:xlink="http://www.w3.org/1999/xlink" x="0px" y="0px"
	 width="529.711px" height="627.983px" viewBox="0 0 529.711 627.983" enable-background="new 0 0 529.711 627.983"
	 xml:space="preserve">
<g>
	<polygon fill-rule="evenodd" clip-rule="evenodd" points="0,627.983 529.711,627.983 529.711,0 0,0 0,627.983 	"/>
	
		<polygon fill-rule="evenodd" clip-rule="evenodd" fill="#FF5400" stroke="#000000" stroke-width="0.5546" stroke-linecap="round" stroke-linejoin="round" points="
		36.554,480.351 490.778,480.351 490.778,29.026 36.554,29.026 36.554,480.351 	"/>
	
		<polygon fill-rule="evenodd" clip-rule="evenodd" fill="#FFFFFF" stroke="#000000" stroke-linecap="round" stroke-linejoin="round" points="
		36.682,440.128 490.903,440.128 468.445,419.344 62.167,419.344 36.682,440.128 	"/>
	
		<polygon fill-rule="evenodd" clip-rule="evenodd" fill="#FFA800" stroke="#000000" stroke-linecap="round" stroke-linejoin="round" points="
		61.845,419.472 467.029,419.472 467.029,44.859 61.845,44.859 61.845,419.472 	"/>
	
		<polygon fill-rule="evenodd" clip-rule="evenodd" fill="#A8A8A8" stroke="#000000" stroke-width="0.5546" stroke-linecap="round" stroke-linejoin="round" points="
		98.334,378.733 275.312,378.733 275.312,331.627 98.334,331.627 98.334,378.733 	"/>
	<polygon fill-rule="evenodd" clip-rule="evenodd" fill="#007EFF" points="71.948,110.306 459.756,110.306 459.756,53.16 
		71.948,53.16 71.948,110.306 	"/>
	<polygon fill-rule="evenodd" clip-rule="evenodd" fill="#5B4003" points="36.554,29.154 490.84,29.154 467.414,44.793 
		61.459,44.793 36.554,29.154 	"/>
	
		<polygon fill-rule="evenodd" clip-rule="evenodd" fill="#FFFF54" stroke="#000000" stroke-width="0.5546" stroke-linecap="round" stroke-linejoin="round" points="
		237.15,597.672 296.679,597.672 296.873,594.067 297,590.528 297.257,583.321 297.257,576.371 297.257,569.421 296.935,562.533 
		296.679,555.777 296.167,549.405 295.779,542.649 295.262,536.405 294.878,529.712 294.491,523.405 294.168,516.905 
		293.718,510.149 293.656,503.455 293.718,496.699 294.168,489.939 292.496,489.555 290.889,489.299 287.799,488.717 
		284.71,488.267 281.424,488.011 277.952,487.623 274.734,487.433 271.195,487.433 267.59,487.366 263.922,487.433 260.19,487.494 
		256.2,487.754 252.209,488.139 248.026,488.526 243.65,488.911 239.273,489.427 234.576,489.939 234.512,493.351 234.384,496.699 
		234.384,503.455 234.576,509.955 234.834,516.905 235.22,523.405 235.67,529.971 236.056,536.662 236.571,543.162 237.15,549.855 
		237.537,556.55 237.859,563.178 238.115,570.128 238.115,576.884 238.051,583.644 237.729,590.656 237.15,597.672 	"/>
	
		<polygon fill-rule="evenodd" clip-rule="evenodd" fill="#FFFF54" stroke="#000000" stroke-width="0.5546" stroke-linecap="round" stroke-linejoin="round" points="
		232.131,599.539 291.595,599.539 291.79,595.934 292.111,592.267 292.368,585.122 292.496,578.109 292.368,571.222 
		292.111,564.466 291.723,557.9 291.402,551.338 290.889,544.578 290.5,538.144 289.989,531.578 289.729,525.016 289.344,518.578 
		289.279,511.95 289.022,505.388 289.022,498.565 289.344,491.806 287.799,491.355 286.19,491.1 283.101,490.584 276.535,489.621 
		273.318,489.555 269.779,489.427 266.302,489.299 262.701,489.299 258.901,489.427 255.3,489.427 251.245,489.621 247.254,489.939 
		243.006,490.199 238.695,490.649 234.254,491.293 229.685,491.806 229.621,495.154 229.362,498.438 229.362,505.193 
		229.685,511.888 229.942,518.578 230.265,525.338 230.715,531.9 231.165,538.594 231.615,545.094 232.131,551.594 232.452,558.288 
		232.837,565.044 233.16,571.866 233.224,578.56 232.837,585.51 232.773,592.522 232.131,599.539 	"/>
	
		<polygon fill-rule="evenodd" clip-rule="evenodd" fill="#FFFF54" stroke="#000000" stroke-width="0.5546" stroke-linecap="round" stroke-linejoin="round" points="
		233.224,602.499 292.624,602.499 292.818,598.895 293.078,595.29 293.268,587.955 293.268,581.133 293.268,574.311 
		293.078,567.427 292.624,560.795 292.368,554.167 291.79,547.667 291.402,541.167 290.889,534.477 290.5,528.167 290.307,521.477 
		289.922,515.039 289.922,508.282 289.922,501.526 290.435,494.704 288.7,494.383 287.09,494.061 284.067,493.544 277.567,492.772 
		274.156,492.45 270.81,492.256 267.4,492.193 263.792,492.193 260.124,492.256 256.266,492.45 252.273,492.71 248.412,492.966 
		244.229,493.288 239.854,493.61 235.476,494.188 230.779,494.704 230.715,498.115 230.586,501.526 230.521,508.026 
		230.715,514.782 230.779,521.477 231.165,528.167 231.615,534.732 232.131,541.361 232.581,547.927 233.16,554.683 
		233.481,561.183 233.74,567.939 233.932,574.761 233.932,581.455 233.932,588.599 233.546,595.421 233.224,602.499 	"/>
	
		<polygon fill-rule="evenodd" clip-rule="evenodd" fill="#FFFF54" stroke="#000000" stroke-width="0.5546" stroke-linecap="round" stroke-linejoin="round" points="
		228.398,603.916 288.247,603.916 288.506,600.311 288.506,596.644 288.7,589.693 288.7,582.678 288.7,575.793 288.506,568.84 
		288.184,562.277 287.799,555.777 287.284,549.212 286.961,542.521 286.64,536.083 286.124,529.521 285.933,522.89 285.611,516.455 
		285.611,509.699 285.74,503.005 286.058,496.121 284.389,495.799 282.712,495.604 279.624,495.154 276.407,494.511 
		272.996,494.316 269.522,493.866 266.045,493.866 262.701,493.61 258.901,493.61 255.362,493.866 251.373,493.866 247.448,494.061 
		243.585,494.511 239.337,494.767 235.026,495.154 230.521,495.733 225.887,496.121 225.823,499.594 225.565,502.939 
		225.565,509.699 225.823,516.262 226.017,522.89 226.467,529.712 226.981,536.149 227.304,542.905 227.818,549.405 
		228.268,556.293 228.784,562.855 228.977,569.55 229.234,576.178 229.298,583.128 229.041,590.016 228.977,596.966 
		228.398,603.916 	"/>
	<polyline fill="none" stroke="#FFFFFF" stroke-width="0.5546" stroke-linecap="round" stroke-linejoin="round" points="
		221.77,606.939 303.692,606.939 303.692,553.395 221.77,553.395 221.77,606.939 	"/>
	
		<polygon fill-rule="evenodd" clip-rule="evenodd" fill="#FFFFFF" stroke="#FFFFFF" stroke-width="0.5546" stroke-linecap="round" stroke-linejoin="round" points="
		259.48,557.193 258.711,558.609 257.488,559.96 256.522,561.183 255.3,562.277 253.88,563.5 252.531,564.466 251.245,565.494 
		249.893,566.589 248.606,567.617 246.545,569.611 245.065,572.122 244.745,573.282 244.745,574.698 245.065,576.049 
		244.809,577.722 243.973,579.589 242.17,581.711 240.046,583.966 238.759,584.929 236.571,586.989 234.384,588.661 
		232.581,590.144 225.887,603.722 227.24,603.399 228.656,602.821 231.615,601.34 234.834,599.732 238.051,597.672 241.076,595.611 
		244.357,593.232 247.254,590.528 250.473,587.89 253.24,584.994 255.944,582.033 258.323,579.267 260.318,576.371 261.991,573.604 
		263.213,570.966 264.051,568.39 264.373,565.622 265.98,563.95 267.012,562.533 267.718,561.183 267.718,559.767 266.755,558.479 
		263.922,557.706 261.991,557.45 259.48,557.193 	"/>
	
		<polygon fill-rule="evenodd" clip-rule="evenodd" fill="#FFFFFF" stroke="#FFFFFF" stroke-width="0.5546" stroke-linecap="round" stroke-linejoin="round" points="
		296.679,560.732 294.944,562.471 293.078,564.916 292.111,566.332 290.889,567.749 289.922,569.421 288.957,571.094 
		287.924,572.701 287.09,574.377 286.124,575.793 285.223,577.206 284.323,578.56 283.873,579.845 282.712,581.711 281.362,584.094 
		280.524,585.188 279.624,586.473 278.467,587.89 277.435,589.371 276.084,590.788 274.862,592.267 273.64,593.683 272.355,595.161 
		271.001,596.578 269.779,597.866 268.747,599.282 267.59,600.567 265.723,602.628 266.755,602.306 270.035,600.311 
		272.417,598.895 274.862,596.966 277.823,594.648 280.268,592.46 282.969,589.821 285.48,587.055 287.862,584.479 290.307,581.711 
		292.368,578.944 294.168,576.434 295.779,573.795 296.679,571.544 297.257,569.421 297.773,567.427 297.192,565.944 
		296.873,564.466 296.55,562.855 296.422,561.377 	"/>
	
		<polygon fill-rule="evenodd" clip-rule="evenodd" fill="#FFFFFF" stroke="#000000" stroke-width="0.5546" stroke-linecap="round" stroke-linejoin="round" points="
		341.022,313.865 429.314,313.865 430.217,313.865 433.244,313.543 435.236,313.027 437.102,312.255 438.903,311.482 
		440.579,310.582 442.124,309.422 443.54,308.071 444.825,306.655 445.985,305.177 446.885,303.372 447.914,301.7 448.557,299.771 
		448.945,297.839 449.395,295.781 449.589,293.721 449.589,144.416 449.458,143.321 448.945,140.232 448.557,138.238 
		447.914,136.371 446.885,134.57 445.985,132.895 444.825,131.288 443.54,130 442.124,128.583 440.579,127.489 438.903,126.395 
		437.102,125.494 435.236,124.85 433.244,124.4 431.377,124.144 429.314,123.821 341.022,123.821 339.924,123.95 336.773,124.4 
		334.844,124.85 332.977,125.494 331.173,126.395 329.5,127.489 327.957,128.583 326.412,130 325.255,131.288 324.158,132.895 
		323.067,134.57 322.167,136.371 321.522,138.238 320.94,140.232 320.812,142.227 320.684,144.416 320.684,293.721 320.684,294.815 
		320.94,297.839 321.522,299.771 322.167,301.7 323.067,303.372 324.158,305.177 325.255,306.655 326.412,308.071 327.957,309.422 
		329.5,310.582 331.173,311.482 332.977,312.255 334.844,313.027 336.773,313.543 338.702,313.733 341.022,313.865 	"/>
	
		<polygon fill-rule="evenodd" clip-rule="evenodd" fill="#A8A8A8" stroke="#000000" stroke-width="0.5546" stroke-linecap="round" stroke-linejoin="round" points="
		344.111,307.75 426.1,307.75 427.128,307.75 429.833,307.428 431.89,307.105 433.435,306.333 435.173,305.562 436.589,304.599 
		438.068,303.504 439.547,302.344 440.644,300.928 441.607,299.577 442.702,297.967 443.412,296.231 443.99,294.493 
		444.568,292.755 444.825,290.954 444.825,288.828 444.825,150.078 444.825,149.177 444.568,146.216 443.99,144.416 
		443.412,142.743 442.702,141.133 441.607,139.526 440.644,138.044 439.547,136.821 438.068,135.665 436.589,134.505 
		435.173,133.476 433.435,132.832 431.89,132.06 429.833,131.738 428.157,131.416 426.1,131.222 344.111,131.222 342.951,131.288 
		340.184,131.738 338.38,132.06 336.71,132.832 334.969,133.476 333.49,134.505 331.946,135.665 330.595,136.821 329.5,138.044 
		328.407,139.526 327.569,141.133 326.734,142.743 325.896,144.416 325.574,146.216 325.318,148.211 325.255,150.078 
		325.255,288.828 325.255,289.988 325.574,292.755 325.896,294.493 326.734,296.231 327.569,297.967 328.407,299.577 329.5,300.928 
		330.595,302.344 331.946,303.504 333.49,304.599 334.969,305.562 336.71,306.333 338.38,307.105 340.184,307.428 342.178,307.75 
		344.111,307.75 	"/>
	
		<polygon fill-rule="evenodd" clip-rule="evenodd" fill="#FFFFFF" stroke="#000000" stroke-width="0.5546" stroke-linecap="round" stroke-linejoin="round" points="
		354.212,259.483 415.736,259.483 415.736,244.426 354.212,244.426 354.212,259.483 	"/>
	
		<polygon fill-rule="evenodd" clip-rule="evenodd" fill="#A8A8A8" stroke="#000000" stroke-width="0.5546" stroke-linecap="round" stroke-linejoin="round" points="
		84.884,314.188 287.799,314.188 287.799,125.494 84.884,125.494 84.884,314.188 	"/>
	
		<path fill-rule="evenodd" clip-rule="evenodd" fill="#166816" stroke="#005400" stroke-width="0.5546" stroke-linecap="round" stroke-linejoin="round" d="
		M197.327,253c-21.407,17.839-45.361,34.142-71.859,40.207l3.436,0.449l4.247,0.322l8.109,0.838l7.916,0.513l7.723,0.582
		l7.594,0.321l7.594,0.579h7.4l7.466,0.063l7.529-0.063h7.594l7.594-0.579l7.916-0.321l7.851-0.582l8.173-0.513l8.496-0.838
		l8.751-0.835h0.966l2.767-0.772l1.932-0.581l1.607-0.645l1.61-0.834l1.479-0.9l1.482-1.032l1.222-1.413l1.157-1.354l1.223-1.479
		l0.775-1.351l1.091-1.738l0.645-1.804l0.644-1.673l0.322-1.866l0.45-2.058l0.322-3.67l0.384-3.668l0.645-7.338l0.71-6.95
		l0.321-7.012l0.447-6.822l0.26-6.822v-6.694l0.128-6.756l-0.128-6.694v-6.694l-0.385-6.756l-0.152-3.187
		C240.749,197.273,220.645,232.372,197.327,253z"/>
	
		<path fill-rule="evenodd" clip-rule="evenodd" fill="#004800" stroke="#005400" stroke-width="0.5546" stroke-linecap="round" stroke-linejoin="round" d="
		M272.033,184.122l-0.644-7.078l-0.454-7.016l-0.706-7.334l-0.194-1.032l-0.578-2.829l-0.644-1.867l-0.579-1.738l-0.834-1.738
		l-1.098-1.479l-0.967-1.416l-1.284-1.351l-1.351-1.094l-1.417-1.289l-1.544-0.772l-1.61-1.029l-1.607-0.644l-1.932-0.516
		l-1.737-0.513l-1.997-0.26l-4.312-0.384l-4.311-0.194l-8.303-0.707l-8.108-0.388l-8.044-0.385l-7.851-0.388l-7.658-0.45h-7.788
		l-7.658-0.066h-7.529l-7.594,0.066l-7.594,0.194l-7.658,0.384l-7.723,0.322l-7.722,0.578l-8.044,0.71l-7.98,0.707l-1.094,0.194
		l-2.897,0.644l-1.737,0.45l-1.544,0.707l-1.672,0.966l-1.48,0.966l-1.288,1.156l-1.287,1.226l-1.287,1.285l-1.094,1.544
		l-0.836,1.482l-0.966,1.479l-0.644,1.867l-0.772,1.801l-0.578,1.932l-0.194,1.867l-0.772,3.923l-0.708,3.733l-1.093,7.595
		l-0.838,7.272l-0.836,7.144l-0.322,7.016l-0.256,6.822l-0.258,6.95v6.756l0.322,6.565l0.322,6.691l0.256,6.628l0.772,6.565
		l0.708,6.757l0.772,6.822l0.902,6.821l1.029,6.888l0.064,1.029l0.644,2.895l0.644,1.673l0.772,1.804l0.708,1.479l1.028,1.416
		l1.159,1.673l1.224,1.288l1.415,1.351l1.288,0.966l1.415,0.966l1.544,0.772l1.738,0.835l1.737,0.581l1.931,0.45l2.061,0.322
		l0.489,0.064c26.498-6.064,50.452-22.368,71.859-40.207c23.318-20.628,43.422-55.727,75.454-58.421l-0.17-3.569L272.033,184.122z"
		/>
	
		<polygon fill-rule="evenodd" clip-rule="evenodd" fill="#A8A8A8" stroke="#000000" stroke-width="0.5546" stroke-linecap="round" stroke-linejoin="round" points="
		36.682,589.371 213.403,589.371 213.403,502.299 36.682,502.299 36.682,589.371 	"/>
	
		<polygon fill-rule="evenodd" clip-rule="evenodd" fill="#A8A8A8" stroke="#000000" stroke-width="0.5546" stroke-linecap="round" stroke-linejoin="round" points="
		311.611,589.371 490.778,589.371 490.778,502.299 311.611,502.299 311.611,589.371 	"/>
	
		<polygon fill-rule="evenodd" clip-rule="evenodd" stroke="#000000" stroke-width="0.5546" stroke-linecap="round" stroke-linejoin="round" points="
		367.407,527.332 434.723,527.332 434.723,514.782 367.407,514.782 367.407,527.332 	"/>
	
		<polygon fill-rule="evenodd" clip-rule="evenodd" fill="#FFFFFF" stroke="#FFFFFF" stroke-width="0.5546" stroke-linecap="round" stroke-linejoin="round" points="
		367.535,527.395 434.529,527.395 429.314,522.183 369.914,522.183 367.535,527.395 	"/>
	
		<polygon fill-rule="evenodd" clip-rule="evenodd" stroke="#000000" stroke-width="0.5546" stroke-linecap="round" stroke-linejoin="round" points="
		91.834,527.332 158.314,527.332 158.314,514.782 91.834,514.782 91.834,527.332 	"/>
	
		<polygon fill-rule="evenodd" clip-rule="evenodd" fill="#FFFFFF" stroke="#FFFFFF" stroke-width="0.5546" stroke-linecap="round" stroke-linejoin="round" points="
		91.834,527.395 158.314,527.395 156.962,522.055 100.395,522.055 91.834,527.395 	"/>
	
		<polygon fill-rule="evenodd" clip-rule="evenodd" stroke="#000000" stroke-width="0.5546" stroke-linecap="round" stroke-linejoin="round" points="
		111.464,359.233 172.987,359.233 172.987,352.093 111.464,352.093 111.464,359.233 	"/>
	
		<polygon fill-rule="evenodd" clip-rule="evenodd" stroke="#000000" stroke-width="0.5546" stroke-linecap="round" stroke-linejoin="round" points="
		198.087,359.233 259.74,359.233 259.74,352.093 198.087,352.093 198.087,359.233 	"/>
	
		<polygon fill-rule="evenodd" clip-rule="evenodd" fill="#FFFFFF" stroke="#000000" stroke-width="0.5546" stroke-linecap="round" stroke-linejoin="round" points="
		118.35,354.472 168.804,354.472 168.676,356.017 168.612,357.433 168.418,360.199 168.354,362.71 168.162,365.221 168.096,367.216 
		168.032,369.404 168.032,371.333 168.032,373.456 168.032,375.517 168.032,377.511 168.482,393.406 155.804,393.537 
		117.062,393.537 116.74,391.733 116.484,389.933 116.034,386.649 115.904,383.755 115.646,380.987 115.646,378.671 
		115.646,376.482 115.646,374.294 115.711,372.299 116.034,370.433 116.29,368.372 116.484,366.506 117.062,364.511 117.32,362.066 
		117.512,359.878 118.028,357.239 118.35,354.472 	"/>
	
		<polygon fill-rule="evenodd" clip-rule="evenodd" fill="#FFFFFF" stroke="#000000" stroke-width="0.5546" stroke-linecap="round" stroke-linejoin="round" points="
		204.393,354.472 254.978,354.472 254.722,355.694 254.462,359.233 254.334,361.229 254.334,363.354 254.334,365.283 
		254.334,367.149 254.334,369.017 254.462,370.817 254.462,373.006 254.462,377.639 254.462,380.344 254.334,383.11 
		254.012,386.394 253.88,393.021 202.656,392.766 201.562,392.184 201.69,390.705 201.754,387.679 201.754,385.171 202.012,382.595 
		202.076,380.149 202.334,377.898 202.398,375.71 202.59,373.587 202.656,371.527 202.913,369.145 203.042,367.149 203.298,364.771 
		203.621,362.582 203.814,359.878 204.071,357.239 204.393,354.472 	"/>
	
		<line fill="none" stroke="#FFFFFF" stroke-linecap="round" stroke-linejoin="round" x1="124.464" y1="59.144" x2="95.31" y2="98.531"/>
	
		<line fill="none" stroke="#FFFFFF" stroke-linecap="round" stroke-linejoin="round" x1="153.745" y1="72.916" x2="138.17" y2="94.604"/>
	
		<line fill="none" stroke="#FFFFFF" stroke-linecap="round" stroke-linejoin="round" x1="358.458" y1="65.128" x2="329.113" y2="100.526"/>
	
		<line fill="none" stroke="#FFFFFF" stroke-linecap="round" stroke-linejoin="round" x1="410.846" y1="74.977" x2="391.477" y2="98.531"/>
	
		<line fill="none" stroke="#FFFFFF" stroke-linecap="round" stroke-linejoin="round" x1="442.124" y1="65.128" x2="414.901" y2="98.531"/>
	
		<polygon fill-rule="evenodd" clip-rule="evenodd" stroke="#000000" stroke-width="0.5546" stroke-linecap="round" stroke-linejoin="round" points="
		339.924,229.688 430.667,229.688 432.212,229.237 433.435,228.271 434.269,226.727 434.723,225.438 434.723,145.444 
		434.529,144.094 433.948,142.743 433.047,141.649 431.377,141.07 339.924,140.811 338.574,141.07 337.351,141.843 336.451,143.321 
		336.067,144.416 335.745,145.444 335.745,225.054 336.129,226.405 336.773,228.015 338.38,229.237 339.924,229.688 	"/>
	
		<polygon fill-rule="evenodd" clip-rule="evenodd" stroke="#000000" stroke-width="0.5546" stroke-linecap="round" stroke-linejoin="round" points="
		363.289,253.755 407.566,253.755 407.566,249.443 363.289,249.443 363.289,253.755 	"/>
	
		<polygon fill-rule="evenodd" clip-rule="evenodd" stroke="#000000" stroke-width="0.5546" stroke-linecap="round" stroke-linejoin="round" points="
		353.377,287.221 416.379,287.221 416.379,282.844 353.377,282.844 353.377,287.221 	"/>
	
		<polygon fill-rule="evenodd" clip-rule="evenodd" fill="#A8A8A8" stroke="#A8A8A8" stroke-width="0.5546" stroke-linecap="round" stroke-linejoin="round" points="
		344.88,159.989 368.823,159.989 368.823,147.893 344.88,147.893 344.88,159.989 	"/>
	
		<polygon fill-rule="evenodd" clip-rule="evenodd" fill="#A8A8A8" stroke="#A8A8A8" stroke-width="0.5546" stroke-linecap="round" stroke-linejoin="round" points="
		374.228,159.989 398.296,159.989 398.296,147.893 374.228,147.893 374.228,159.989 	"/>
	
		<polygon fill-rule="evenodd" clip-rule="evenodd" fill="#A8A8A8" stroke="#A8A8A8" stroke-width="0.5546" stroke-linecap="round" stroke-linejoin="round" points="
		403.574,159.989 427.769,159.989 427.769,147.893 403.574,147.893 403.574,159.989 	"/>
	
		<polygon fill-rule="evenodd" clip-rule="evenodd" fill="#A8A8A8" stroke="#A8A8A8" stroke-width="0.5546" stroke-linecap="round" stroke-linejoin="round" points="
		344.88,179.876 368.823,179.876 368.823,167.843 344.88,167.843 344.88,179.876 	"/>
	
		<polygon fill-rule="evenodd" clip-rule="evenodd" fill="#A8A8A8" stroke="#A8A8A8" stroke-width="0.5546" stroke-linecap="round" stroke-linejoin="round" points="
		374.228,179.876 398.296,179.876 398.296,167.843 374.228,167.843 374.228,179.876 	"/>
	
		<polygon fill-rule="evenodd" clip-rule="evenodd" fill="#A8A8A8" stroke="#A8A8A8" stroke-width="0.5546" stroke-linecap="round" stroke-linejoin="round" points="
		403.574,179.876 427.769,179.876 427.769,167.843 403.574,167.843 403.574,179.876 	"/>
	
		<polygon fill-rule="evenodd" clip-rule="evenodd" fill="#A8A8A8" stroke="#A8A8A8" stroke-width="0.5546" stroke-linecap="round" stroke-linejoin="round" points="
		344.88,199.827 368.823,199.827 368.823,187.792 344.88,187.792 344.88,199.827 	"/>
	
		<polygon fill-rule="evenodd" clip-rule="evenodd" fill="#A8A8A8" stroke="#A8A8A8" stroke-width="0.5546" stroke-linecap="round" stroke-linejoin="round" points="
		374.228,199.827 398.296,199.827 398.296,187.792 374.228,187.792 374.228,199.827 	"/>
	
		<polygon fill-rule="evenodd" clip-rule="evenodd" fill="#A8A8A8" stroke="#A8A8A8" stroke-width="0.5546" stroke-linecap="round" stroke-linejoin="round" points="
		403.574,199.827 427.769,199.827 427.769,187.792 403.574,187.792 403.574,199.827 	"/>
	
		<polygon fill-rule="evenodd" clip-rule="evenodd" fill="#A8A8A8" stroke="#A8A8A8" stroke-width="0.5546" stroke-linecap="round" stroke-linejoin="round" points="
		344.88,219.711 368.823,219.711 368.823,207.549 344.88,207.549 344.88,219.711 	"/>
	
		<polygon fill-rule="evenodd" clip-rule="evenodd" fill="#00FF00" stroke="#00FF00" stroke-width="0.5546" stroke-linecap="round" stroke-linejoin="round" points="
		374.228,219.711 398.296,219.711 398.296,207.549 374.228,207.549 374.228,219.711 	"/>
	
		<polygon fill-rule="evenodd" clip-rule="evenodd" fill="#FF0054" stroke="#FF0054" stroke-width="0.5546" stroke-linecap="round" stroke-linejoin="round" points="
		403.574,219.711 427.769,219.711 427.769,207.549 403.574,207.549 403.574,219.711 	"/>
	
		<polygon fill-rule="evenodd" clip-rule="evenodd" stroke="#000000" stroke-width="0.5546" stroke-linecap="round" stroke-linejoin="round" points="
		117.32,143.127 115.646,143.965 113.651,145.316 111.592,146.86 110.112,148.921 85.787,125.816 117.32,143.127 	"/>
	
		<polygon fill-rule="evenodd" clip-rule="evenodd" stroke="#000000" stroke-width="0.5546" stroke-linecap="round" stroke-linejoin="round" points="
		268.622,151.56 267.078,149.243 265.595,147.183 263.601,145.832 260.578,144.416 287.218,125.816 268.622,151.56 	"/>
	
		<polygon fill-rule="evenodd" clip-rule="evenodd" fill="#FFFFFF" stroke="#FFFFFF" stroke-width="0.5546" stroke-linecap="round" stroke-linejoin="round" points="
		108.696,285.354 110.434,287.478 112.493,289.473 115.067,291.404 117.706,292.755 85.851,313.35 108.696,285.354 	"/>
	
		<polygon fill-rule="evenodd" clip-rule="evenodd" fill="#FFFFFF" stroke="#FFFFFF" stroke-width="0.5546" stroke-linecap="round" stroke-linejoin="round" points="
		262.444,290.566 264.952,289.15 266.818,287.415 268.234,285.549 269.329,283.554 286.703,313.027 262.444,290.566 	"/>
</g>
<path opacity="0.3" fill-rule="evenodd" clip-rule="evenodd" fill="#BACEBA" d="M256.326,188.998
	c-2.689-17.66-16.432-20.998-33-20.998c-16.561,0-33.471-1.004-49.997,0.003c-17.687,1.078-13.439,21.085-14.781,35.219
	c-1.413,14.878-0.845,32.224,1.503,46.829c2.77,17.231,17.332,18.302,33.274,19.896c24.626,2.462,17.269-8.525,29.752-23.219
	c4.225-4.972,11.256-6.529,17.285-7.761c14.176-2.875,18.046,6.078,17.999-12.456C258.332,213.98,258.217,201.417,256.326,188.998z"
	/>
<path fill-rule="evenodd" clip-rule="evenodd" fill="#FFFFFF" d="M257.014,259.394c-1.952,5.427,1.601,15.069-5.512,16.883
	c-4.231,1.079-10.498-2.06-13.459,1.995c-0.277,0.379-0.257,1.076,0,1.458c1.788,2.657,4.844,2.31,7.729,2.486
	c3.159,0.193,6.855,0.067,9.742-1.39c8.646-4.363,4.033-12.91,6.126-20.219C262.5,257.603,258.042,256.535,257.014,259.394z"/>
<path fill-rule="evenodd" clip-rule="evenodd" fill="#FFFFFF" d="M140.327,152.133c-6.701-0.329-12.286-1.517-18.581,1.334
	c-2.413,1.093-3.573,4.262-3.743,6.681c-0.143,2.031-0.239,4.067-0.119,6.1c0.13,2.194-0.772,4.062-0.439,6.246
	c0.152,0.999,1.445,1.703,2.375,1.388c7.624-2.575,0.655-12.058,2.96-16.866c2.72-5.673,12.498-3.073,17.546-3.148
	C141.451,153.851,141.439,152.188,140.327,152.133z"/>
</svg>
